<?xml version="1.0" standalone="no"?>
<!DOCTYPE svg PUBLIC "-//W3C//DTD SVG 20010904//EN"
 "http://www.w3.org/TR/2001/REC-SVG-20010904/DTD/svg10.dtd">
<svg version="1.0" xmlns="http://www.w3.org/2000/svg"
 width="260.000000pt" height="260.000000pt" viewBox="0 0 260.000000 260.000000"
 preserveAspectRatio="xMidYMid meet">
<metadata>
Created by potrace 1.11, written by Peter Selinger 2001-2013
</metadata>
<g transform="translate(0.000000,260.000000) scale(0.100000,-0.100000)"
fill="#000000" stroke="none">
<path d="M317 2242 c-27 -3 -28 -5 -25 -54 3 -57 -5 -52 103 -64 92 -10 119
-13 137 -13 16 -1 17 -23 18 -248 0 -137 3 -367 5 -513 2 -146 6 -393 9 -550
5 -304 0 -364 -39 -440 -39 -76 -47 -79 -108 -32 -101 78 -193 101 -272 68
-38 -16 -75 -68 -75 -104 0 -80 94 -131 234 -127 102 4 126 9 202 46 77 36
149 101 191 171 31 50 64 158 78 253 8 55 15 447 18 1005 l2 465 40 6 c22 4
65 10 95 14 103 12 95 6 95 63 1 30 -4 52 -10 53 -36 2 -675 3 -698 1z"/>
<path d="M1218 2213 c-2 -16 -1 -39 2 -53 5 -23 13 -26 88 -35 45 -6 85 -12
87 -13 3 -1 16 -2 30 -2 23 0 24 -3 24 -62 0 -35 0 -333 0 -663 0 -766 3 -685
-25 -686 -13 -1 -27 -2 -31 -3 -5 -1 -45 -6 -90 -10 l-83 -8 -1 -32 c0 -17 -2
-41 -3 -54 -2 -12 0 -22 3 -23 8 0 617 0 669 0 l42 1 0 55 c0 50 -2 55 -22 54
-24 0 -119 9 -153 16 -11 2 -29 4 -40 4 -20 1 -20 8 -23 266 l-3 265 98 1
c141 0 205 8 313 35 273 69 417 223 425 459 6 149 -32 252 -125 346 -68 69
-153 113 -274 144 -87 22 -107 23 -497 24 l-407 2 -4 -28z m735 -97 c220 -28
329 -161 322 -393 -7 -248 -167 -373 -477 -373 l-109 0 2 383 c1 210 4 385 5
388 4 7 185 4 257 -5z"/>
</g>
</svg>
